<svg xmlns="http://www.w3.org/2000/svg" viewBox="0 0 56 40"><defs><pattern id="weave" width="6" height="6" patternUnits="userSpaceOnUse" patternTransform="rotate(45)"><rect width="6" height="6" fill="#3b5a8c"/><rect width="3" height="6" fill="#2c456e" opacity="0.55"/></pattern><linearGradient id="sheen" x1="0" y1="0" x2="1" y2="1"><stop offset="0" stop-color="#ffffff" stop-opacity="0.16"/><stop offset="0.5" stop-color="#ffffff" stop-opacity="0"/><stop offset="1" stop-color="#000000" stop-opacity="0.18"/></linearGradient></defs><rect width="56" height="40" rx="10" fill="url(#weave)"/><rect width="56" height="40" rx="10" fill="url(#sheen)"/><rect x="0.75" y="0.75" width="54.5" height="38.5" rx="9.5" fill="none" stroke="#ffffff" stroke-opacity="0.25" stroke-width="1.5"/><rect x="8" y="10" width="40" height="20" rx="3" fill="#e2e8f0" opacity="0.95"/><g fill="#3b82f6"><circle cx="10" cy="13" r="1.5"/><circle cx="15" cy="13" r="1.5"/><circle cx="20" cy="13" r="1.5"/><circle cx="25" cy="13" r="1.5"/><circle cx="30" cy="13" r="1.5"/><circle cx="35" cy="13" r="1.5"/><circle cx="40" cy="13" r="1.5"/><circle cx="45" cy="13" r="1.5"/><circle cx="10" cy="18" r="1.5"/><circle cx="15" cy="18" r="1.5"/><circle cx="20" cy="18" r="1.5"/><circle cx="25" cy="18" r="1.5"/><circle cx="30" cy="18" r="1.5"/><circle cx="35" cy="18" r="1.5"/><circle cx="40" cy="18" r="1.5"/><circle cx="45" cy="18" r="1.5"/><circle cx="10" cy="23" r="1.5"/><circle cx="15" cy="23" r="1.5"/><circle cx="20" cy="23" r="1.5"/><circle cx="25" cy="23" r="1.5"/><circle cx="30" cy="23" r="1.5"/><circle cx="35" cy="23" r="1.5"/><circle cx="40" cy="23" r="1.5"/><circle cx="45" cy="23" r="1.5"/><circle cx="10" cy="28" r="1.5"/><circle cx="15" cy="28" r="1.5"/><circle cx="20" cy="28" r="1.5"/><circle cx="25" cy="28" r="1.5"/><circle cx="30" cy="28" r="1.5"/><circle cx="35" cy="28" r="1.5"/><circle cx="40" cy="28" r="1.5"/><circle cx="45" cy="28" r="1.5"/><circle cx="10" cy="33" r="1.5"/><circle cx="15" cy="33" r="1.5"/><circle cx="20" cy="33" r="1.5"/><circle cx="25" cy="33" r="1.5"/><circle cx="30" cy="33" r="1.5"/><circle cx="35" cy="33" r="1.5"/><circle cx="40" cy="33" r="1.5"/><circle cx="45" cy="33" r="1.5"/></g><text x="28" y="38" font-size="6" text-anchor="middle" fill="#ffffff" opacity="0.65" font-family="sans-serif">halftone</text></svg>