<svg xmlns="http://www.w3.org/2000/svg" viewBox="0 0 56 40"><defs><pattern id="weave" width="6" height="6" patternUnits="userSpaceOnUse" patternTransform="rotate(45)"><rect width="6" height="6" fill="#3b5a8c"/><rect width="3" height="6" fill="#2c456e" opacity="0.55"/></pattern><linearGradient id="sheen" x1="0" y1="0" x2="1" y2="1"><stop offset="0" stop-color="#ffffff" stop-opacity="0.16"/><stop offset="0.5" stop-color="#ffffff" stop-opacity="0"/><stop offset="1" stop-color="#000000" stop-opacity="0.18"/></linearGradient></defs><rect width="56" height="40" rx="10" fill="url(#weave)"/><rect width="56" height="40" rx="10" fill="url(#sheen)"/><rect x="0.75" y="0.75" width="54.5" height="38.5" rx="9.5" fill="none" stroke="#ffffff" stroke-opacity="0.25" stroke-width="1.5"/><rect x="8" y="8" width="40" height="24" rx="3" fill="#111827" opacity="0.25"/><rect x="10" y="10" width="3" height="7" rx="0.8" fill="#d1d5db" stroke="#6b7280" stroke-width="0.5"/><rect x="12" y="19" width="3" height="7" rx="0.8" fill="#9ca3af" stroke="#4b5563" stroke-width="0.5"/><rect x="14" y="10" width="3" height="7" rx="0.8" fill="#d1d5db" stroke="#6b7280" stroke-width="0.5"/><rect x="16" y="19" width="3" height="7" rx="0.8" fill="#9ca3af" stroke="#4b5563" stroke-width="0.5"/><rect x="18" y="10" width="3" height="7" rx="0.8" fill="#d1d5db" stroke="#6b7280" stroke-width="0.5"/><rect x="20" y="19" width="3" height="7" rx="0.8" fill="#9ca3af" stroke="#4b5563" stroke-width="0.5"/><rect x="22" y="10" width="3" height="7" rx="0.8" fill="#d1d5db" stroke="#6b7280" stroke-width="0.5"/><rect x="24" y="19" width="3" height="7" rx="0.8" fill="#9ca3af" stroke="#4b5563" stroke-width="0.5"/><rect x="26" y="10" width="3" height="7" rx="0.8" fill="#d1d5db" stroke="#6b7280" stroke-width="0.5"/><rect x="28" y="19" width="3" height="7" rx="0.8" fill="#9ca3af" stroke="#4b5563" stroke-width="0.5"/><rect x="30" y="10" width="3" height="7" rx="0.8" fill="#d1d5db" stroke="#6b7280" stroke-width="0.5"/><rect x="32" y="19" width="3" height="7" rx="0.8" fill="#9ca3af" stroke="#4b5563" stroke-width="0.5"/><rect x="34" y="10" width="3" height="7" rx="0.8" fill="#d1d5db" stroke="#6b7280" stroke-width="0.5"/><rect x="36" y="19" width="3" height="7" rx="0.8" fill="#9ca3af" stroke="#4b5563" stroke-width="0.5"/><rect x="38" y="10" width="3" height="7" rx="0.8" fill="#d1d5db" stroke="#6b7280" stroke-width="0.5"/><rect x="40" y="19" width="3" height="7" rx="0.8" fill="#9ca3af" stroke="#4b5563" stroke-width="0.5"/><rect x="42" y="10" width="3" height="7" rx="0.8" fill="#d1d5db" stroke="#6b7280" stroke-width="0.5"/><rect x="44" y="19" width="3" height="7" rx="0.8" fill="#9ca3af" stroke="#4b5563" stroke-width="0.5"/><rect x="24" y="26" width="8" height="10" rx="2.5" fill="none" stroke="#e5e7eb" stroke-width="2.4"/><circle cx="28" cy="24" r="1.6" fill="#e5e7eb"/></svg>