<svg xmlns="http://www.w3.org/2000/svg" viewBox="0 0 56 40"><defs><pattern id="weave" width="6" height="6" patternUnits="userSpaceOnUse" patternTransform="rotate(45)"><rect width="6" height="6" fill="#3b5a8c"/><rect width="3" height="6" fill="#2c456e" opacity="0.55"/></pattern><linearGradient id="sheen" x1="0" y1="0" x2="1" y2="1"><stop offset="0" stop-color="#ffffff" stop-opacity="0.16"/><stop offset="0.5" stop-color="#ffffff" stop-opacity="0"/><stop offset="1" stop-color="#000000" stop-opacity="0.18"/></linearGradient></defs><rect width="56" height="40" rx="10" fill="url(#weave)"/><rect width="56" height="40" rx="10" fill="url(#sheen)"/><rect x="0.75" y="0.75" width="54.5" height="38.5" rx="9.5" fill="none" stroke="#ffffff" stroke-opacity="0.25" stroke-width="1.5"/><path d="M8 24 L11.4 13 M9.6 24 L13 13" fill="none" stroke="#f5f0e6" stroke-width="2" stroke-linecap="round" stroke-linejoin="round"/><path d="M8 24 L11.4 13 M9.6 24 L13 13" fill="none" stroke="#ffffff" stroke-opacity="0.45" stroke-width="1" stroke-linecap="round" stroke-linejoin="round" transform="translate(0,-0.8)"/><path d="M12.6 24 L16 13 M14.2 24 L17.6 13" fill="none" stroke="#f5f0e6" stroke-width="2" stroke-linecap="round" stroke-linejoin="round"/><path d="M12.6 24 L16 13 M14.2 24 L17.6 13" fill="none" stroke="#ffffff" stroke-opacity="0.45" stroke-width="1" stroke-linecap="round" stroke-linejoin="round" transform="translate(0,-0.8)"/><path d="M17.2 24 L20.599999999999998 13 M18.8 24 L22.2 13" fill="none" stroke="#f5f0e6" stroke-width="2" stroke-linecap="round" stroke-linejoin="round"/><path d="M17.2 24 L20.599999999999998 13 M18.8 24 L22.2 13" fill="none" stroke="#ffffff" stroke-opacity="0.45" stroke-width="1" stroke-linecap="round" stroke-linejoin="round" transform="translate(0,-0.8)"/><path d="M21.799999999999997 24 L25.199999999999996 13 M23.4 24 L26.799999999999997 13" fill="none" stroke="#f5f0e6" stroke-width="2" stroke-linecap="round" stroke-linejoin="round"/><path d="M21.799999999999997 24 L25.199999999999996 13 M23.4 24 L26.799999999999997 13" fill="none" stroke="#ffffff" stroke-opacity="0.45" stroke-width="1" stroke-linecap="round" stroke-linejoin="round" transform="translate(0,-0.8)"/><path d="M26.4 24 L29.799999999999997 13 M28 24 L31.4 13" fill="none" stroke="#f5f0e6" stroke-width="2" stroke-linecap="round" stroke-linejoin="round"/><path d="M26.4 24 L29.799999999999997 13 M28 24 L31.4 13" fill="none" stroke="#ffffff" stroke-opacity="0.45" stroke-width="1" stroke-linecap="round" stroke-linejoin="round" transform="translate(0,-0.8)"/><path d="M31 24 L34.4 13 M32.6 24 L36 13" fill="none" stroke="#f5f0e6" stroke-width="2" stroke-linecap="round" stroke-linejoin="round"/><path d="M31 24 L34.4 13 M32.6 24 L36 13" fill="none" stroke="#ffffff" stroke-opacity="0.45" stroke-width="1" stroke-linecap="round" stroke-linejoin="round" transform="translate(0,-0.8)"/><path d="M35.599999999999994 24 L38.99999999999999 13 M37.199999999999996 24 L40.599999999999994 13" fill="none" stroke="#f5f0e6" stroke-width="2" stroke-linecap="round" stroke-linejoin="round"/><path d="M35.599999999999994 24 L38.99999999999999 13 M37.199999999999996 24 L40.599999999999994 13" fill="none" stroke="#ffffff" stroke-opacity="0.45" stroke-width="1" stroke-linecap="round" stroke-linejoin="round" transform="translate(0,-0.8)"/><path d="M40.199999999999996 24 L43.599999999999994 13 M41.8 24 L45.199999999999996 13" fill="none" stroke="#f5f0e6" stroke-width="2" stroke-linecap="round" stroke-linejoin="round"/><path d="M40.199999999999996 24 L43.599999999999994 13 M41.8 24 L45.199999999999996 13" fill="none" stroke="#ffffff" stroke-opacity="0.45" stroke-width="1" stroke-linecap="round" stroke-linejoin="round" transform="translate(0,-0.8)"/><path d="M44.8 24 L48.199999999999996 13 M46.4 24 L49.8 13" fill="none" stroke="#f5f0e6" stroke-width="2" stroke-linecap="round" stroke-linejoin="round"/><path d="M44.8 24 L48.199999999999996 13 M46.4 24 L49.8 13" fill="none" stroke="#ffffff" stroke-opacity="0.45" stroke-width="1" stroke-linecap="round" stroke-linejoin="round" transform="translate(0,-0.8)"/><path d="M6 25 H50" fill="none" stroke="#f5f0e6" stroke-width="2.6" stroke-linecap="round" stroke-linejoin="round"/><path d="M6 25 H50" fill="none" stroke="#ffffff" stroke-opacity="0.45" stroke-width="1" stroke-linecap="round" stroke-linejoin="round" transform="translate(0,-0.8)"/></svg>